<svg version="1.1" id="Layer_1" xmlns="http://www.w3.org/2000/svg" xmlns:xlink="http://www.w3.org/1999/xlink" x="0px" y="0px"
	 width="100%" viewBox="0 0 512 512" enable-background="new 0 0 512 512" xml:space="preserve">
<path fill="#010000" opacity="1.000000" stroke="none" 
	d="
M285.000000,513.000000 
	C190.023056,513.000000 95.546112,513.000000 1.034582,513.000000 
	C1.034582,342.398041 1.034582,171.796051 1.034582,1.097036 
	C171.560287,1.097036 342.120667,1.097036 512.840515,1.097036 
	C512.840515,171.666550 512.840515,342.333252 512.840515,513.000000 
	C437.129364,513.000000 361.314667,513.000000 285.000000,513.000000 
M342.217499,167.965240 
	C340.674805,167.657440 339.132111,167.349640 337.589417,167.041824 
	C337.174255,167.364532 336.759094,167.687241 336.343964,168.009949 
	C338.239563,171.999557 340.135162,175.989182 342.219116,180.624924 
	C345.818085,184.727280 349.515137,188.689774 355.911560,190.275238 
	C355.911560,187.343094 355.911469,184.917557 355.911591,182.492020 
	C355.912140,169.640488 355.912170,169.640488 342.217499,167.965240 
M365.823822,326.122498 
	C365.823822,321.522186 365.823822,316.921875 365.823822,312.066071 
	C359.026611,311.573792 352.812256,311.123688 346.498138,310.666382 
	C346.498138,314.898621 346.498138,318.509247 346.304810,323.022888 
	C346.304810,335.236786 346.304810,347.450653 346.304810,359.993103 
	C352.127014,359.993103 357.247131,360.026276 362.366455,359.978027 
	C364.672333,359.956299 365.905426,359.022827 365.854340,356.364929 
	C365.666473,346.591797 365.677521,336.814819 365.823822,326.122498 
M296.205109,304.052216 
	C270.232025,313.863037 246.642044,307.123932 224.273849,293.168671 
	C221.213379,296.612976 218.509140,299.656372 215.838577,302.661896 
	C231.406250,321.945251 280.256866,328.122131 310.604584,314.654877 
	C317.135498,311.727600 323.329987,308.329651 327.888000,302.643219 
	C325.021637,299.512146 322.343109,296.586243 319.574768,293.562256 
	C315.789764,295.459503 312.137390,297.396973 308.393280,299.137024 
	C304.638184,300.882141 300.791595,302.430328 296.205109,304.052216 
M463.697479,475.506012 
	C481.728790,475.879486 491.720306,466.188812 491.748413,448.285400 
	C491.760681,440.469116 491.766754,432.652771 491.747040,424.836487 
	C491.701660,406.846069 481.058960,397.011871 461.998596,397.999176 
	C460.667358,397.987640 459.336151,397.967041 458.004913,397.966003 
	C446.503754,397.956970 443.693237,400.797089 443.689972,412.452240 
	C443.685303,429.094604 443.670380,445.736969 443.696045,462.379303 
	C443.711182,472.194977 447.064758,475.530182 456.912201,475.547180 
	C458.894470,475.550598 460.877106,475.313873 463.697479,475.506012 
M418.929596,451.271149 
	C422.012573,451.271149 425.095581,451.271149 428.586487,451.271149 
	C428.586487,437.228729 428.646667,423.933044 428.559143,410.638306 
	C428.519928,404.681885 429.475739,399.103973 432.777069,393.972992 
	C433.533966,392.796570 433.636871,390.824371 433.309601,389.384644 
	C430.657288,377.716217 428.086304,366.019196 425.002655,354.461090 
	C419.011139,332.003235 402.667816,320.927856 381.067657,315.170441 
	C381.067657,321.729645 381.067657,327.863251 380.925995,334.926788 
	C380.917053,342.414581 380.802124,349.904938 380.986115,357.388000 
	C381.024200,358.936188 381.736664,361.178314 382.882477,361.872772 
	C390.012451,366.193970 393.437134,372.750183 394.821045,380.587769 
	C397.305756,394.659393 399.630920,408.759125 402.060364,422.840607 
	C403.688629,432.278564 405.381866,441.705353 407.035431,451.077148 
	C411.094269,451.077148 414.561493,451.077148 418.929596,451.271149 
M472.863098,261.896484 
	C476.526947,261.895599 480.199829,262.059662 483.852783,261.859833 
	C491.711487,261.429932 497.696198,256.023254 497.789581,248.264435 
	C498.058167,225.950302 498.044739,203.629196 497.803497,181.314484 
	C497.720764,173.661789 492.021118,168.242767 484.436188,167.822510 
	C480.305817,167.593674 476.144440,167.923676 471.085266,167.767624 
	C465.429871,167.732605 459.774200,167.644821 454.119141,167.673645 
	C442.671997,167.731995 437.369537,173.020309 437.322052,184.489075 
	C437.269043,197.299088 437.309326,210.109482 437.309906,222.919708 
	C437.310272,230.738937 437.182922,238.560867 437.347229,246.376678 
	C437.540833,255.584702 442.924011,261.551239 451.505676,261.840729 
	C458.309723,262.070251 465.132172,261.753204 472.863098,261.896484 
M213.859695,483.871643 
	C218.991806,483.892090 224.125397,483.998230 229.255615,483.909241 
	C234.596451,483.816650 237.382523,481.381042 237.680710,476.185547 
	C237.955338,471.400330 237.944092,466.576599 237.691544,461.789215 
	C237.417343,456.591339 234.624557,454.089386 229.329163,454.029358 
	C223.870590,453.967407 218.409531,454.124054 212.027359,454.050262 
	C166.250610,454.034027 120.473862,454.017822 74.697113,454.001801 
	C74.364197,454.001709 74.030579,453.990967 73.698456,454.007935 
	C68.649963,454.265778 66.064934,456.764709 65.912193,461.786102 
	C65.790787,465.777557 65.868958,469.775513 65.881378,473.770538 
	C65.906029,481.699158 68.063324,483.909393 75.862686,483.921692 
	C88.180847,483.941132 100.504166,484.138000 112.815132,483.839813 
	C119.121918,483.687042 124.100739,484.764740 125.330688,491.838074 
	C131.683090,491.838074 137.653381,491.838074 143.562042,491.838074 
	C146.201447,484.728088 147.350494,483.953857 155.011475,483.926300 
	C174.316116,483.856842 193.620712,483.779999 213.859695,483.871643 
M368.922943,451.297455 
	C376.339417,451.297455 383.755890,451.297455 391.607056,451.297455 
	C389.219208,437.255005 386.954010,423.872833 384.665253,410.494629 
	C383.100220,401.346893 381.542969,392.197479 379.905212,383.062622 
	C378.744354,376.587708 376.614960,374.742218 370.401978,374.764740 
	C365.266022,374.783325 360.130524,374.929596 354.080841,374.798309 
	C334.809753,374.798309 315.538666,374.798309 296.433868,374.798309 
	C291.271576,389.359070 283.222290,395.026184 268.178162,395.034515 
	C264.182434,395.036743 260.168091,395.273224 256.196594,394.962830 
	C252.738510,394.692596 251.015976,395.907867 249.503983,399.091370 
	C242.633621,413.557037 232.996597,425.956879 220.622940,436.187225 
	C219.835663,436.838074 219.198242,437.670135 217.988098,438.949799 
	C222.814545,438.949799 226.790039,438.894745 230.763458,438.961731 
	C238.073837,439.084961 244.118561,442.083038 248.199966,448.044952 
	C250.116547,450.844574 252.149658,451.389099 255.165253,451.380829 
	C284.300507,451.300842 313.436127,451.352966 342.571594,451.320312 
	C351.052277,451.310791 359.532745,451.150574 368.922943,451.297455 
M219.941971,359.076782 
	C167.512787,359.062714 115.083603,359.048248 62.654415,359.034943 
	C53.363491,359.032593 52.789940,359.688629 53.946266,368.960297 
	C54.028629,369.620697 54.040455,370.297638 54.195732,370.940125 
	C61.600685,401.581696 78.969818,424.217896 107.840515,437.564880 
	C109.309296,438.243896 110.983147,438.860199 112.562263,438.861969 
	C133.030014,438.885162 153.497894,438.791565 174.892700,438.891296 
	C181.486435,438.833923 187.965042,439.468140 194.278854,435.948242 
	C213.396515,425.290466 228.153198,410.543884 236.765518,390.423370 
	C240.306152,382.151550 241.942886,373.023529 244.012909,364.183594 
	C244.855118,360.587036 242.837097,358.756012 238.828339,358.966431 
	C232.847305,359.280396 226.843536,359.160858 219.941971,359.076782 
M341.764709,200.321381 
	C329.009338,192.048645 322.316467,180.283340 321.619751,164.457336 
	C312.176605,163.624741 302.795349,162.712112 293.398926,161.999435 
	C287.231415,161.531662 285.336304,160.084442 284.062378,153.284271 
	C285.271942,148.166168 288.699036,146.357742 293.658722,146.901077 
	C310.087982,148.700928 326.515564,150.515884 343.548553,152.761765 
	C347.536041,153.486649 351.523529,154.211548 355.878815,155.003296 
	C355.878815,141.169144 356.155396,127.892563 355.755615,114.636375 
	C355.571167,108.520096 357.493683,104.591736 362.544128,100.947830 
	C374.736267,92.151222 376.192322,78.932823 366.757782,68.246750 
	C362.010498,62.869717 356.135437,59.359951 348.145813,58.012699 
	C337.509979,57.715599 326.874023,57.206688 316.238312,57.211147 
	C310.955597,57.213364 307.864258,55.215504 306.199158,50.226002 
	C303.065033,40.834503 296.250458,35.057159 287.049774,32.056282 
	C268.565063,26.027357 247.000916,33.946110 237.169937,50.735672 
	C234.324951,55.594360 230.918411,57.299419 225.486404,57.228348 
	C216.016220,57.104435 206.440414,56.921383 197.099777,58.179989 
	C191.780350,58.896759 186.208328,61.575653 181.843430,64.835159 
	C167.556961,75.503677 167.926727,91.412117 182.457169,101.753357 
	C186.585083,104.691177 188.395752,107.934349 188.200638,112.969376 
	C187.891281,120.952950 188.118149,128.957306 188.118149,136.952866 
	C188.118164,142.894211 188.118149,148.835541 188.118149,154.986282 
	C189.469467,154.782761 190.277863,154.643036 191.090988,154.541183 
	C211.870911,151.938171 232.637100,149.215729 253.440247,146.813568 
	C259.795837,146.079681 261.704285,147.834915 263.165894,154.703476 
	C262.409607,160.469711 258.311584,161.560791 253.438934,161.888611 
	C243.023773,162.589310 232.619736,163.455276 222.542755,164.228119 
	C221.707596,168.639236 221.281021,172.292892 220.306992,175.794235 
	C216.127090,190.819427 205.577271,199.795792 191.740204,205.694260 
	C190.269897,206.321014 188.377823,208.085892 188.267700,209.450760 
	C187.001556,225.143112 190.900925,239.418594 200.485611,252.082642 
	C211.249405,266.304657 224.832108,277.054504 240.677841,285.018188 
	C249.623230,289.513977 258.837921,293.276764 269.886566,293.828033 
	C295.819305,291.784454 317.195160,280.273376 335.031281,261.885773 
	C347.588104,248.940689 355.020050,233.538406 355.944977,215.196381 
	C356.222534,209.691666 355.709717,205.590897 349.267853,204.308975 
	C346.763550,203.810608 344.507935,202.062454 341.764709,200.321381 
M331.168304,356.225037 
	C331.168304,344.552124 331.168304,332.879211 331.168304,321.322571 
	C291.408813,342.263397 252.394104,342.124176 213.253510,322.130402 
	C213.253510,329.133240 213.253510,336.370758 213.253510,343.972870 
	C215.169983,343.972870 216.802383,343.972809 218.434769,343.972900 
	C235.761215,343.973907 253.087646,343.971619 270.414093,343.977203 
	C280.387177,343.980408 287.916199,348.280762 293.347870,356.646240 
	C294.240479,358.020996 296.288391,359.428497 297.836578,359.467560 
	C307.826202,359.719879 317.826782,359.673279 327.819366,359.488953 
	C328.947296,359.468140 330.048035,357.974243 331.168304,356.225037 
M163.270645,341.344025 
	C163.270645,332.722839 163.270645,324.101654 163.270645,315.038696 
	C145.811142,319.466797 131.526459,327.258698 122.473717,343.961731 
	C135.854736,343.961731 148.295944,343.993469 160.736038,343.890930 
	C161.573532,343.884003 162.402664,342.863129 163.270645,341.344025 
M191.411652,343.982666 
	C193.501770,343.982666 195.591888,343.982666 197.714172,343.982666 
	C197.714172,332.555237 197.714172,321.799866 197.714172,310.590973 
	C191.249176,311.090698 185.027008,311.571655 178.710571,312.059906 
	C178.710571,322.872406 178.710571,333.285980 178.710571,343.982666 
	C182.813492,343.982666 186.625778,343.982666 191.411652,343.982666 
M32.463524,359.025909 
	C30.134638,359.047424 27.785204,358.879089 25.480989,359.128540 
	C20.067257,359.714569 15.999318,364.384460 16.088726,369.658600 
	C16.175051,374.750854 20.093735,379.414154 25.310925,379.806946 
	C30.367100,380.187622 35.474380,379.889526 40.154621,379.889526 
	C39.432129,372.778076 38.752338,366.086945 38.034966,359.025909 
	C36.673748,359.025909 35.041027,359.025909 32.463524,359.025909 
M257.338531,377.847260 
	C257.529449,378.520447 257.718384,379.780579 257.911591,379.781250 
	C263.220215,379.799286 268.596466,380.176819 273.818481,379.456970 
	C278.619354,378.795227 281.843719,373.928406 281.705719,369.254395 
	C281.566437,364.536896 278.119934,359.916138 273.365448,359.363922 
	C268.680695,358.819763 263.883301,359.245148 259.831604,359.245148 
	C259.053528,365.542328 258.344360,371.281799 257.338531,377.847260 
M198.785568,168.293625 
	C196.033600,168.873734 193.229721,169.287537 190.556976,170.121582 
	C189.584030,170.425186 188.260162,171.705887 188.228088,172.582214 
	C188.018829,178.299820 188.120514,184.028824 188.120514,189.885925 
	C198.075729,187.438141 206.364578,176.663986 205.927490,167.133896 
	C203.806229,167.470612 201.705811,167.804016 198.785568,168.293625 
z"/>
<path fill="#E4E4E4" opacity="1.000000" stroke="none" 
	d="
M342.943787,152.325043 
	C326.515564,150.515884 310.087982,148.700928 293.658722,146.901077 
	C288.699036,146.357742 285.271942,148.166168 283.502869,153.640717 
	C276.423737,153.985764 269.904114,153.974380 263.384491,153.962997 
	C261.704285,147.834915 259.795837,146.079681 253.440247,146.813568 
	C232.637100,149.215729 211.870911,151.938171 191.090988,154.541183 
	C190.277863,154.643036 189.469467,154.782761 188.118149,154.986282 
	C188.118149,148.835541 188.118164,142.894211 188.118149,136.952866 
	C188.118149,128.957306 187.891281,120.952950 188.200638,112.969376 
	C188.395752,107.934349 186.585083,104.691177 182.457169,101.753357 
	C167.926727,91.412117 167.556961,75.503677 181.843430,64.835159 
	C186.208328,61.575653 191.780350,58.896759 197.099777,58.179989 
	C206.440414,56.921383 216.016220,57.104435 225.486404,57.228348 
	C230.918411,57.299419 234.324951,55.594360 237.169937,50.735672 
	C247.000916,33.946110 268.565063,26.027357 287.049774,32.056282 
	C296.250458,35.057159 303.065033,40.834503 306.199158,50.226002 
	C307.864258,55.215504 310.955597,57.213364 316.238312,57.211147 
	C326.874023,57.206688 337.509979,57.715599 348.593079,58.465446 
	C349.395721,59.471176 349.680786,60.088047 350.116699,60.567902 
	C364.069977,75.929092 362.582458,91.564590 346.281464,104.392120 
	C344.447998,105.834892 343.181396,109.078163 343.125397,111.520287 
	C342.813629,125.116112 342.956451,138.722366 342.943787,152.325043 
M278.135681,107.275391 
	C278.228699,95.626778 278.389160,83.978134 278.385193,72.329552 
	C278.383331,66.820869 275.558167,63.483524 271.157867,63.301331 
	C266.619507,63.113422 263.312714,66.703003 263.262878,72.258827 
	C263.167267,82.913712 263.241669,93.570076 263.233337,104.225815 
	C263.230194,108.260834 264.615967,111.598419 268.718994,112.745178 
	C272.979980,113.936066 276.175903,112.182877 278.135681,107.275391 
M316.736908,81.435471 
	C316.059937,83.585922 314.839203,85.725998 314.797974,87.888557 
	C314.594971,98.538925 314.656677,109.195564 314.724274,119.849358 
	C314.758850,125.304413 317.579865,128.676361 321.967255,128.832001 
	C326.509155,128.993149 329.769592,125.397095 329.814178,119.826172 
	C329.899414,109.172630 329.946930,98.516426 329.801483,87.864182 
	C329.695007,80.069084 324.190277,77.081299 316.736908,81.435471 
M227.065308,120.990219 
	C227.069321,110.009407 227.107788,99.028450 227.063095,88.047836 
	C227.040039,82.383118 224.022369,78.918022 219.397461,79.028870 
	C214.937805,79.135757 212.055954,82.489182 212.025894,87.880470 
	C211.966537,98.528229 211.971497,109.176720 212.022858,119.824554 
	C212.048080,125.050537 214.566132,128.536728 218.796768,128.730484 
	C223.406036,128.941589 226.311752,126.591034 227.065308,120.990219 
z"/>
<path fill="#FEDCA5" opacity="1.000000" stroke="none" 
	d="
M263.275208,154.333237 
	C269.904114,153.974380 276.423737,153.985764 283.403015,153.994843 
	C285.336304,160.084442 287.231415,161.531662 293.398926,161.999435 
	C302.795349,162.712112 312.176605,163.624741 321.619751,164.457336 
	C322.316467,180.283340 329.009338,192.048645 341.933167,201.075882 
	C342.659668,215.256409 341.617249,228.375031 335.218018,240.590027 
	C320.896393,267.927521 297.965942,284.472992 269.068054,293.594604 
	C258.837921,293.276764 249.623230,289.513977 240.677841,285.018188 
	C224.832108,277.054504 211.249405,266.304657 200.485611,252.082642 
	C190.900925,239.418594 187.001556,225.143112 188.267700,209.450760 
	C188.377823,208.085892 190.269897,206.321014 191.740204,205.694260 
	C205.577271,199.795792 216.127090,190.819427 220.306992,175.794235 
	C221.281021,172.292892 221.707596,168.639236 222.542755,164.228119 
	C232.619736,163.455276 243.023773,162.589310 253.438934,161.888611 
	C258.311584,161.560791 262.409607,160.469711 263.275208,154.333237 
M316.634583,190.759293 
	C305.397156,185.219894 294.228760,184.887955 283.509125,191.847061 
	C279.390808,194.520615 278.802704,199.262436 281.364746,202.736816 
	C283.820129,206.066559 287.809601,206.613052 291.990631,204.229889 
	C297.809113,200.913361 303.707153,200.852783 309.454803,204.246353 
	C312.488434,206.037476 315.339264,206.436218 318.302094,204.426971 
	C323.040070,201.213867 322.609589,195.854614 316.634583,190.759293 
M244.079910,187.037613 
	C236.519821,186.573334 229.083267,186.820267 222.614471,191.487961 
	C218.612930,194.375366 217.607971,198.750153 219.931900,202.332336 
	C222.330475,206.029587 226.388947,206.717575 230.799103,204.215988 
	C236.608078,200.920929 242.449402,200.948502 248.260056,204.195633 
	C252.691956,206.672272 256.729980,206.007721 259.135406,202.330246 
	C261.451447,198.789413 260.614716,194.045288 256.416779,191.597702 
	C252.919128,189.558380 248.808121,188.571014 244.079910,187.037613 
z"/>
<path fill="#F68411" opacity="1.000000" stroke="none" 
	d="
M173.965744,438.727448 
	C153.497894,438.791565 133.030014,438.885162 112.562263,438.861969 
	C110.983147,438.860199 109.309296,438.243896 107.840515,437.564880 
	C78.969818,424.217896 61.600685,401.581696 54.195732,370.940125 
	C54.040455,370.297638 54.028629,369.620697 53.946266,368.960297 
	C52.789940,359.688629 53.363491,359.032593 62.654415,359.034943 
	C115.083603,359.048248 167.512787,359.062714 220.427551,359.595520 
	C221.288025,377.441803 214.668137,392.523346 205.740707,406.803619 
	C197.590332,419.840912 186.401520,429.921021 173.965744,438.727448 
z"/>
<path fill="#E6E6E6" opacity="1.000000" stroke="none" 
	d="
M368.013336,451.059479 
	C359.532745,451.150574 351.052277,451.310791 342.571594,451.320312 
	C313.436127,451.352966 284.300507,451.300842 255.165253,451.380829 
	C252.149658,451.389099 250.116547,450.844574 248.199966,448.044952 
	C244.118561,442.083038 238.073837,439.084961 230.763458,438.961731 
	C226.790039,438.894745 222.814545,438.949799 217.988098,438.949799 
	C219.198242,437.670135 219.835663,436.838074 220.622940,436.187225 
	C232.996597,425.956879 242.633621,413.557037 249.503983,399.091370 
	C251.015976,395.907867 252.738510,394.692596 256.196594,394.962830 
	C260.168091,395.273224 264.182434,395.036743 268.178162,395.034515 
	C283.222290,395.026184 291.271576,389.359070 296.433868,374.798309 
	C315.538666,374.798309 334.809753,374.798309 354.537537,375.332520 
	C357.165344,388.565826 359.315887,401.268494 361.513611,413.962982 
	C363.655060,426.332825 365.844788,438.694336 368.013336,451.059479 
z"/>
<path fill="#808080" opacity="1.000000" stroke="none" 
	d="
M212.925339,483.706116 
	C193.620712,483.779999 174.316116,483.856842 155.011475,483.926300 
	C147.350494,483.953857 146.201447,484.728088 143.562042,491.838074 
	C137.653381,491.838074 131.683090,491.838074 125.330688,491.838074 
	C124.100739,484.764740 119.121918,483.687042 112.815132,483.839813 
	C100.504166,484.138000 88.180847,483.941132 75.862686,483.921692 
	C68.063324,483.909393 65.906029,481.699158 65.881378,473.770538 
	C65.868958,469.775513 65.790787,465.777557 65.912193,461.786102 
	C66.064934,456.764709 68.649963,454.265778 73.698456,454.007935 
	C74.030579,453.990967 74.364197,454.001709 74.697113,454.001801 
	C120.473862,454.017822 166.250610,454.034027 212.520355,454.526489 
	C212.984024,464.570526 212.954681,474.138336 212.925339,483.706116 
z"/>
<path fill="#E4E4E4" opacity="1.000000" stroke="none" 
	d="
M471.946472,261.678833 
	C465.132172,261.753204 458.309723,262.070251 451.505676,261.840729 
	C442.924011,261.551239 437.540833,255.584702 437.347229,246.376678 
	C437.182922,238.560867 437.310272,230.738937 437.309906,222.919708 
	C437.309326,210.109482 437.269043,197.299088 437.322052,184.489075 
	C437.369537,173.020309 442.671997,167.731995 454.119141,167.673645 
	C459.774200,167.644821 465.429871,167.732605 471.577393,168.250046 
	C475.660065,174.822617 476.204163,181.445068 476.082642,188.374374 
	C475.832550,202.638702 476.064331,216.910812 475.988251,231.179123 
	C475.933197,241.506073 477.425964,252.061646 471.946472,261.678833 
z"/>
<path fill="#4981C6" opacity="1.000000" stroke="none" 
	d="
M381.067657,333.996887 
	C381.067657,327.863251 381.067657,321.729645 381.067657,315.170441 
	C402.667816,320.927856 419.011139,332.003235 425.002655,354.461090 
	C428.086304,366.019196 430.657288,377.716217 433.309601,389.384644 
	C433.636871,390.824371 433.533966,392.796570 432.777069,393.972992 
	C429.475739,399.103973 428.519928,404.681885 428.559143,410.638306 
	C428.646667,423.933044 428.586487,437.228729 428.586487,451.271149 
	C425.095581,451.271149 422.012573,451.271149 418.480347,450.700317 
	C417.700317,442.691071 417.369019,435.252686 417.038727,427.814209 
	C416.147980,407.751190 412.888489,388.012207 407.830444,368.641510 
	C403.881073,353.516846 395.544586,341.250641 381.067657,333.996887 
z"/>
<path fill="#62ADD5" opacity="1.000000" stroke="none" 
	d="
M331.164856,356.694244 
	C330.048035,357.974243 328.947296,359.468140 327.819366,359.488953 
	C317.826782,359.673279 307.826202,359.719879 297.836578,359.467560 
	C296.288391,359.428497 294.240479,358.020996 293.347870,356.646240 
	C287.916199,348.280762 280.387177,343.980408 270.414093,343.977203 
	C253.087646,343.971619 235.761215,343.973907 218.434769,343.972900 
	C216.802383,343.972809 215.169983,343.972870 213.253510,343.972870 
	C213.253510,336.370758 213.253510,329.133240 213.253510,322.130402 
	C252.394104,342.124176 291.408813,342.263397 331.168304,321.322571 
	C331.168304,332.879211 331.168304,344.552124 331.164856,356.694244 
z"/>
<path fill="#FFDDA6" opacity="1.000000" stroke="none" 
	d="
M462.859589,475.187836 
	C460.877106,475.313873 458.894470,475.550598 456.912201,475.547180 
	C447.064758,475.530182 443.711182,472.194977 443.696045,462.379303 
	C443.670380,445.736969 443.685303,429.094604 443.689972,412.452240 
	C443.693237,400.797089 446.503754,397.956970 458.004913,397.966003 
	C459.336151,397.967041 460.667358,397.987640 462.531494,398.406067 
	C469.348450,405.674286 473.126740,413.542328 473.021698,423.051971 
	C472.940796,430.376404 472.653931,437.723328 473.086914,445.023010 
	C473.771454,456.564575 471.021332,466.742462 462.859589,475.187836 
z"/>
<path fill="#C1C5CA" opacity="1.000000" stroke="none" 
	d="
M472.404785,261.787659 
	C477.425964,252.061646 475.933197,241.506073 475.988251,231.179123 
	C476.064331,216.910812 475.832550,202.638702 476.082642,188.374374 
	C476.204163,181.445068 475.660065,174.822617 472.033295,168.367065 
	C476.144440,167.923676 480.305817,167.593674 484.436188,167.822510 
	C492.021118,168.242767 497.720764,173.661789 497.803497,181.314484 
	C498.044739,203.629196 498.058167,225.950302 497.789581,248.264435 
	C497.696198,256.023254 491.711487,261.429932 483.852783,261.859833 
	C480.199829,262.059662 476.526947,261.895599 472.404785,261.787659 
z"/>
<path fill="#63AED7" opacity="1.000000" stroke="none" 
	d="
M380.996826,334.461853 
	C395.544586,341.250641 403.881073,353.516846 407.830444,368.641510 
	C412.888489,388.012207 416.147980,407.751190 417.038727,427.814209 
	C417.369019,435.252686 417.700317,442.691071 418.029907,450.603333 
	C414.561493,451.077148 411.094269,451.077148 407.035431,451.077148 
	C405.381866,441.705353 403.688629,432.278564 402.060364,422.840607 
	C399.630920,408.759125 397.305756,394.659393 394.821045,380.587769 
	C393.437134,372.750183 390.012451,366.193970 382.882477,361.872772 
	C381.736664,361.178314 381.024200,358.936188 380.986115,357.388000 
	C380.802124,349.904938 380.917053,342.414581 380.996826,334.461853 
z"/>
<path fill="#C1C6CB" opacity="1.000000" stroke="none" 
	d="
M368.468140,451.178467 
	C365.844788,438.694336 363.655060,426.332825 361.513611,413.962982 
	C359.315887,401.268494 357.165344,388.565826 354.994507,375.442993 
	C360.130524,374.929596 365.266022,374.783325 370.401978,374.764740 
	C376.614960,374.742218 378.744354,376.587708 379.905212,383.062622 
	C381.542969,392.197479 383.100220,401.346893 384.665253,410.494629 
	C386.954010,423.872833 389.219208,437.255005 391.607056,451.297455 
	C383.755890,451.297455 376.339417,451.297455 368.468140,451.178467 
z"/>
<path fill="#F54311" opacity="1.000000" stroke="none" 
	d="
M174.429230,438.809387 
	C186.401520,429.921021 197.590332,419.840912 205.740707,406.803619 
	C214.668137,392.523346 221.288025,377.441803 220.881287,359.669983 
	C226.843536,359.160858 232.847305,359.280396 238.828339,358.966431 
	C242.837097,358.756012 244.855118,360.587036 244.012909,364.183594 
	C241.942886,373.023529 240.306152,382.151550 236.765518,390.423370 
	C228.153198,410.543884 213.396515,425.290466 194.278854,435.948242 
	C187.965042,439.468140 181.486435,438.833923 174.429230,438.809387 
z"/>
<path fill="#F7C067" opacity="1.000000" stroke="none" 
	d="
M463.278534,475.346924 
	C471.021332,466.742462 473.771454,456.564575 473.086914,445.023010 
	C472.653931,437.723328 472.940796,430.376404 473.021698,423.051971 
	C473.126740,413.542328 469.348450,405.674286 462.979309,398.483765 
	C481.058960,397.011871 491.701660,406.846069 491.747040,424.836487 
	C491.766754,432.652771 491.760681,440.469116 491.748413,448.285400 
	C491.720306,466.188812 481.728790,475.879486 463.278534,475.346924 
z"/>
<path fill="#F8C067" opacity="1.000000" stroke="none" 
	d="
M269.477295,293.711304 
	C297.965942,284.472992 320.896393,267.927521 335.218018,240.590027 
	C341.617249,228.375031 342.659668,215.256409 342.120331,201.356995 
	C344.507935,202.062454 346.763550,203.810608 349.267853,204.308975 
	C355.709717,205.590897 356.222534,209.691666 355.944977,215.196381 
	C355.020050,233.538406 347.588104,248.940689 335.031281,261.885773 
	C317.195160,280.273376 295.819305,291.784454 269.477295,293.711304 
z"/>
<path fill="#F7BF66" opacity="1.000000" stroke="none" 
	d="
M309.912323,314.753387 
	C280.256866,328.122131 231.406250,321.945251 215.838577,302.661896 
	C218.509140,299.656372 221.213379,296.612976 224.273849,293.168671 
	C246.642044,307.123932 270.232025,313.863037 296.754639,304.349182 
	C301.506897,308.015259 305.709595,311.384308 309.912323,314.753387 
z"/>
<path fill="#BFC4C9" opacity="1.000000" stroke="none" 
	d="
M343.246155,152.543396 
	C342.956451,138.722366 342.813629,125.116112 343.125397,111.520287 
	C343.181396,109.078163 344.447998,105.834892 346.281464,104.392120 
	C362.582458,91.564590 364.069977,75.929092 350.116699,60.567902 
	C349.680786,60.088047 349.395721,59.471176 348.995575,58.587181 
	C356.135437,59.359951 362.010498,62.869717 366.757782,68.246750 
	C376.192322,78.932823 374.736267,92.151222 362.544128,100.947830 
	C357.493683,104.591736 355.571167,108.520096 355.755615,114.636375 
	C356.155396,127.892563 355.878815,141.169144 355.878815,155.003296 
	C351.523529,154.211548 347.536041,153.486649 343.246155,152.543396 
z"/>
<path fill="#63AED7" opacity="1.000000" stroke="none" 
	d="
M163.253174,341.828918 
	C162.402664,342.863129 161.573532,343.884003 160.736038,343.890930 
	C148.295944,343.993469 135.854736,343.961731 122.473717,343.961731 
	C131.526459,327.258698 145.811142,319.466797 163.270645,315.038696 
	C163.270645,324.101654 163.270645,332.722839 163.253174,341.828918 
z"/>
<path fill="#E6E6E6" opacity="1.000000" stroke="none" 
	d="
M365.613739,327.039307 
	C365.677521,336.814819 365.666473,346.591797 365.854340,356.364929 
	C365.905426,359.022827 364.672333,359.956299 362.366455,359.978027 
	C357.247131,360.026276 352.127014,359.993103 346.304810,359.993103 
	C346.304810,347.450653 346.304810,335.236786 346.774048,322.577362 
	C353.366760,323.767639 359.490265,325.403473 365.613739,327.039307 
z"/>
<path fill="#656565" opacity="1.000000" stroke="none" 
	d="
M213.392517,483.788879 
	C212.954681,474.138336 212.984024,464.570526 212.981476,454.593933 
	C218.409531,454.124054 223.870590,453.967407 229.329163,454.029358 
	C234.624557,454.089386 237.417343,456.591339 237.691544,461.789215 
	C237.944092,466.576599 237.955338,471.400330 237.680710,476.185547 
	C237.382523,481.381042 234.596451,483.816650 229.255615,483.909241 
	C224.125397,483.998230 218.991806,483.892090 213.392517,483.788879 
z"/>
<path fill="#DEDEDE" opacity="1.000000" stroke="none" 
	d="
M190.924866,343.982666 
	C186.625778,343.982666 182.813492,343.982666 178.710571,343.982666 
	C178.710571,333.285980 178.710571,322.872406 178.710571,312.059906 
	C185.027008,311.571655 191.249176,311.090698 197.714172,310.590973 
	C197.714172,321.799866 197.714172,332.555237 197.714172,343.982666 
	C195.591888,343.982666 193.501770,343.982666 190.924866,343.982666 
z"/>
<path fill="#F7BF66" opacity="1.000000" stroke="none" 
	d="
M32.935913,359.025909 
	C35.041027,359.025909 36.673748,359.025909 38.034966,359.025909 
	C38.752338,366.086945 39.432129,372.778076 40.154621,379.889526 
	C35.474380,379.889526 30.367100,380.187622 25.310925,379.806946 
	C20.093735,379.414154 16.175051,374.750854 16.088726,369.658600 
	C15.999318,364.384460 20.067257,359.714569 25.480989,359.128540 
	C27.785204,358.879089 30.134638,359.047424 32.935913,359.025909 
z"/>
<path fill="#F7BF66" opacity="1.000000" stroke="none" 
	d="
M257.486877,377.434265 
	C258.344360,371.281799 259.053528,365.542328 259.831604,359.245148 
	C263.883301,359.245148 268.680695,358.819763 273.365448,359.363922 
	C278.119934,359.916138 281.566437,364.536896 281.705719,369.254395 
	C281.843719,373.928406 278.619354,378.795227 273.818481,379.456970 
	C268.596466,380.176819 263.220215,379.799286 257.911591,379.781250 
	C257.718384,379.780579 257.529449,378.520447 257.486877,377.434265 
z"/>
<path fill="#E9A63A" opacity="1.000000" stroke="none" 
	d="
M310.258453,314.704132 
	C305.709595,311.384308 301.506897,308.015259 297.144653,304.355469 
	C300.791595,302.430328 304.638184,300.882141 308.393280,299.137024 
	C312.137390,297.396973 315.789764,295.459503 319.574768,293.562256 
	C322.343109,296.586243 325.021637,299.512146 327.888000,302.643219 
	C323.329987,308.329651 317.135498,311.727600 310.258453,314.704132 
z"/>
<path fill="#7B7B7B" opacity="1.000000" stroke="none" 
	d="
M199.195480,168.215515 
	C201.705811,167.804016 203.806229,167.470612 205.927490,167.133896 
	C206.364578,176.663986 198.075729,187.438141 188.120514,189.885925 
	C188.120514,184.028824 188.018829,178.299820 188.228088,172.582214 
	C188.260162,171.705887 189.584030,170.425186 190.556976,170.121582 
	C193.229721,169.287537 196.033600,168.873734 199.195480,168.215515 
z"/>
<path fill="#B3B7BC" opacity="1.000000" stroke="none" 
	d="
M365.718781,326.580902 
	C359.490265,325.403473 353.366760,323.767639 346.870728,322.125854 
	C346.498138,318.509247 346.498138,314.898621 346.498138,310.666382 
	C352.812256,311.123688 359.026611,311.573792 365.823822,312.066071 
	C365.823822,316.921875 365.823822,321.522186 365.718781,326.580902 
z"/>
<path fill="#636363" opacity="1.000000" stroke="none" 
	d="
M342.951660,168.194366 
	C355.912170,169.640488 355.912140,169.640488 355.911591,182.492020 
	C355.911469,184.917557 355.911560,187.343094 355.911560,190.275238 
	C349.515137,188.689774 345.818085,184.727280 342.393005,179.995880 
	C342.695160,175.642685 342.823425,171.918518 342.951660,168.194366 
z"/>
<path fill="#7B7B7B" opacity="1.000000" stroke="none" 
	d="
M342.584595,168.079803 
	C342.823425,171.918518 342.695160,175.642685 342.298828,179.672821 
	C340.135162,175.989182 338.239563,171.999557 336.343964,168.009949 
	C336.759094,167.687241 337.174255,167.364532 337.589417,167.041824 
	C339.132111,167.349640 340.674805,167.657440 342.584595,168.079803 
z"/>
<path fill="#060606" opacity="1.000000" stroke="none" 
	d="
M278.056152,107.675125 
	C276.175903,112.182877 272.979980,113.936066 268.718994,112.745178 
	C264.615967,111.598419 263.230194,108.260834 263.233337,104.225815 
	C263.241669,93.570076 263.167267,82.913712 263.262878,72.258827 
	C263.312714,66.703003 266.619507,63.113422 271.157867,63.301331 
	C275.558167,63.483524 278.383331,66.820869 278.385193,72.329552 
	C278.389160,83.978134 278.228699,95.626778 278.056152,107.675125 
z"/>
<path fill="#050505" opacity="1.000000" stroke="none" 
	d="
M317.028015,81.155609 
	C324.190277,77.081299 329.695007,80.069084 329.801483,87.864182 
	C329.946930,98.516426 329.899414,109.172630 329.814178,119.826172 
	C329.769592,125.397095 326.509155,128.993149 321.967255,128.832001 
	C317.579865,128.676361 314.758850,125.304413 314.724274,119.849358 
	C314.656677,109.195564 314.594971,98.538925 314.797974,87.888557 
	C314.839203,85.725998 316.059937,83.585922 317.028015,81.155609 
z"/>
<path fill="#020202" opacity="1.000000" stroke="none" 
	d="
M227.047821,121.431046 
	C226.311752,126.591034 223.406036,128.941589 218.796768,128.730484 
	C214.566132,128.536728 212.048080,125.050537 212.022858,119.824554 
	C211.971497,109.176720 211.966537,98.528229 212.025894,87.880470 
	C212.055954,82.489182 214.937805,79.135757 219.397461,79.028870 
	C224.022369,78.918022 227.040039,82.383118 227.063095,88.047836 
	C227.107788,99.028450 227.069321,110.009407 227.047821,121.431046 
z"/>
<path fill="#050403" opacity="1.000000" stroke="none" 
	d="
M316.956055,190.947266 
	C322.609589,195.854614 323.040070,201.213867 318.302094,204.426971 
	C315.339264,206.436218 312.488434,206.037476 309.454803,204.246353 
	C303.707153,200.852783 297.809113,200.913361 291.990631,204.229889 
	C287.809601,206.613052 283.820129,206.066559 281.364746,202.736816 
	C278.802704,199.262436 279.390808,194.520615 283.509125,191.847061 
	C294.228760,184.887955 305.397156,185.219894 316.956055,190.947266 
z"/>
<path fill="#050403" opacity="1.000000" stroke="none" 
	d="
M244.524353,187.077667 
	C248.808121,188.571014 252.919128,189.558380 256.416779,191.597702 
	C260.614716,194.045288 261.451447,198.789413 259.135406,202.330246 
	C256.729980,206.007721 252.691956,206.672272 248.260056,204.195633 
	C242.449402,200.948502 236.608078,200.920929 230.799103,204.215988 
	C226.388947,206.717575 222.330475,206.029587 219.931900,202.332336 
	C217.607971,198.750153 218.612930,194.375366 222.614471,191.487961 
	C229.083267,186.820267 236.519821,186.573334 244.524353,187.077667 
z"/>
</svg>