<svg xmlns="http://www.w3.org/2000/svg" version="1.1" xmlns:xlink="http://www.w3.org/1999/xlink" width="64" height="64" x="0" y="0" viewBox="0 0 136 136" style="enable-background:new 0 0 512 512" xml:space="preserve" class=""><g><circle cx="68" cy="68" r="64" fill="#FFFFFF" opacity="1" data-original="#2b3642" class=""></circle><path fill="#000000" d="M68 112.5C58 112.5 50.1 93 50.1 68S58 23.5 68 23.5 85.9 43 85.9 68 78 112.5 68 112.5zm0-86.3C60.7 26.2 52.8 43 52.8 68s7.9 41.8 15.2 41.8S83.2 93 83.2 68 75.3 26.2 68 26.2z" opacity="1" data-original="#ffffff" class=""></path><path fill="#000000" d="M41.9 93.5c-7.1 0-12-2-13.9-5.9-2.2-4.5.1-10.8 6.4-17.6 6-6.5 15.2-13 25.6-18.1s21.1-8.4 30-9.3c9.3-.9 15.6 1.2 17.8 5.7s-.1 10.8-6.4 17.6c-6 6.5-15.2 13-25.6 18.1s-21.1 8.4-30 9.3c-1.3.1-2.6.2-3.9.2zm52.2-48.3c-1.2 0-2.4.1-3.7.2-8.5.8-18.9 4-29.1 9s-19 11.2-24.9 17.5c-5.4 5.9-7.6 11.2-6 14.6 1.7 3.4 7.2 4.9 15.2 4.2 8.5-.8 18.9-4 29.1-9s19-11.2 24.9-17.5c5.4-5.9 7.6-11.2 6-14.6-1.5-2.9-5.6-4.4-11.5-4.4z" opacity="1" data-original="#ffffff" class=""></path><path fill="#000000" d="M94.1 93.5c-1.3 0-2.6-.1-4-.2-8.9-.8-19.5-4.1-30-9.3S40.5 72.5 34.5 65.9c-6.3-6.8-8.6-13.1-6.4-17.6s8.6-6.5 17.8-5.7c8.9.8 19.5 4.1 30 9.3S95.5 63.5 101.5 70c6.3 6.8 8.6 13.1 6.4 17.6-1.8 3.9-6.7 5.9-13.8 5.9zM41.9 45.2c-6 0-10 1.5-11.4 4.3-1.7 3.4.5 8.7 6 14.6 5.8 6.3 14.7 12.5 24.9 17.5s20.5 8.2 29.1 9c8 .7 13.5-.8 15.2-4.2s-.5-8.7-6-14.6C93.9 65.5 85 59.3 74.8 54.3s-20.5-8.2-29.1-9c-1.4 0-2.6-.1-3.8-.1z" opacity="1" data-original="#ffffff" class=""></path><circle cx="104.8" cy="77.7" r="6.3" fill="#EA241F" opacity="1" data-original="#ea241f"></circle><path fill="#DB1616" d="M110.9 79.2c-.8 3.4-4.2 5.4-7.6 4.6-2.4-.6-4.1-2.4-4.6-4.7.8 1 1.9 1.8 3.3 2.1 3.2.8 6.5-1.2 7.3-4.4.3-1.3.2-2.7-.3-3.9 1.7 1.6 2.5 4 1.9 6.3z" opacity="1" data-original="#db1616"></path><ellipse cx="103.4" cy="75.5" fill="#FE4C40" rx="3.2" ry="2.6" transform="rotate(-47.62 103.385 75.412)" opacity="1" data-original="#fe4c40" class=""></ellipse><circle cx="57.6" cy="33.6" r="6.3" fill="#10AE62" opacity="1" data-original="#10ae62"></circle><path fill="#0AA055" d="M63.7 35.1c-.8 3.4-4.2 5.4-7.6 4.6-2.4-.6-4.1-2.4-4.6-4.7.8 1 1.9 1.8 3.3 2.1 3.2.8 6.5-1.2 7.3-4.4.3-1.3.2-2.7-.3-3.9 1.6 1.6 2.4 4 1.9 6.3z" opacity="1" data-original="#0aa055"></path><ellipse cx="56.2" cy="31.3" fill="#16BF66" rx="3.2" ry="2.6" transform="rotate(-47.62 56.162 31.305)" opacity="1" data-original="#16bf66"></ellipse><circle cx="41.7" cy="91.6" r="6.3" fill="#FFC536" opacity="1" data-original="#ffc536"></circle><path fill="#FFB612" d="M47.9 93.1c-.8 3.4-4.2 5.4-7.6 4.6-2.4-.6-4.1-2.4-4.6-4.7.8 1 1.9 1.8 3.3 2.1 3.2.8 6.5-1.2 7.3-4.4.3-1.3.2-2.7-.3-3.9 1.6 1.6 2.4 4 1.9 6.3z" opacity="1" data-original="#ffb612"></path><ellipse cx="40.4" cy="89.3" fill="#FFD964" rx="3.2" ry="2.6" transform="rotate(-47.62 40.367 89.274)" opacity="1" data-original="#ffd964"></ellipse><circle cx="68" cy="67.3" r="8.9" fill="#20CAFB" opacity="1" data-original="#20cafb" class=""></circle><path fill="#00BAE5" d="M76.7 69.5c-1.2 4.8-6 7.7-10.8 6.5-3.4-.8-5.8-3.5-6.5-6.6 1.1 1.4 2.7 2.5 4.7 3 4.6 1.1 9.3-1.7 10.4-6.3.5-1.9.3-3.8-.4-5.5 2.3 2.2 3.4 5.6 2.6 8.9z" opacity="1" data-original="#00bae5" class=""></path><ellipse cx="66.1" cy="64.1" fill="#63DAFC" rx="4.5" ry="3.7" transform="rotate(-47.62 66.032 64.082)" opacity="1" data-original="#63dafc" class=""></ellipse></g></svg>